# xmcd
#
# Track frame offsets:
#	150
#	67224
#	134623
#
# Disc length: 2518 seconds
#
# Revision: 1
# Processed by: cddbd v1.5.1PL0 Copyright (c) Steve Scherf et al.
# Submitted via: audiograbber 1.83.01
#
DISCID=2e09d403
DTITLE=Dickey Betts Band - 2001-05-14 - Northern Lights,Albany, NY - Disc 3
DYEAR=1900
DGENRE=
TTITLE0=Nobody Knows
TTITLE1=Dona Marie
TTITLE2=Ramblin Man - (Encore)
EXTD=
EXTT0=
EXTT1=
EXTT2=
PLAYORDER=
